<mxfile host="app.diagrams.net" modified="2023-07-24T20:12:39.999Z" agent="Mozilla/5.0 (Windows NT 10.0; Win64; x64) AppleWebKit/537.36 (KHTML, like Gecko) Chrome/115.0.0.0 Safari/537.36" etag="IfSeKeo5LJLeueu7Ts5-" version="21.6.5" type="device">
  <diagram name="Página-1" id="HDym7riT4BjrExv3aRxr">
    <mxGraphModel dx="1050" dy="542" grid="1" gridSize="10" guides="1" tooltips="1" connect="1" arrows="1" fold="1" page="1" pageScale="1" pageWidth="827" pageHeight="1169" math="0" shadow="0">
      <root>
        <mxCell id="0" />
        <mxCell id="1" parent="0" />
        <mxCell id="qkdIMLg00aBCKk8LgBi8-1" value="A empresa MicroManu possui uma grande quantidade de clientes que leva seus equipamentos &#xa;como computadores, celulares, video games e até tvs para que seus colaboradores realizem o conserto.&#xa;E eles querem que você desenvolva a base para armazenar todos os dados de seus clientes e seus respectivos consertos.&#xa;Para isto, desenvolva a modelagem para atender a demanda acima. Levando em conta o exemplo abaixo:&#xa;O cliente A levou seu computador na MicroManu, o Erik e o Claudio realizaram a manutenção deste item.&#xa;O cliente B levou sua tv na MicroManu e o Daniel realizou a limpeza de todas as peças.&#xa;&#xa;&#xa;O cliente pode verificar seus consertos no site da MicroManu.&#xa;O colaborador pode encerrar o conserto." style="text;whiteSpace=wrap;" vertex="1" parent="1">
          <mxGeometry width="660" height="160" as="geometry" />
        </mxCell>
        <mxCell id="qkdIMLg00aBCKk8LgBi8-4" style="edgeStyle=orthogonalEdgeStyle;rounded=0;orthogonalLoop=1;jettySize=auto;html=1;entryX=0.5;entryY=0;entryDx=0;entryDy=0;endArrow=none;endFill=0;" edge="1" parent="1" source="qkdIMLg00aBCKk8LgBi8-2" target="qkdIMLg00aBCKk8LgBi8-3">
          <mxGeometry relative="1" as="geometry" />
        </mxCell>
        <mxCell id="qkdIMLg00aBCKk8LgBi8-16" style="edgeStyle=orthogonalEdgeStyle;rounded=0;orthogonalLoop=1;jettySize=auto;html=1;entryX=0;entryY=0.5;entryDx=0;entryDy=0;endArrow=none;endFill=0;" edge="1" parent="1" source="qkdIMLg00aBCKk8LgBi8-2" target="qkdIMLg00aBCKk8LgBi8-13">
          <mxGeometry relative="1" as="geometry" />
        </mxCell>
        <mxCell id="qkdIMLg00aBCKk8LgBi8-2" value="MicroManu" style="rounded=0;whiteSpace=wrap;html=1;" vertex="1" parent="1">
          <mxGeometry x="30" y="190" width="120" height="60" as="geometry" />
        </mxCell>
        <mxCell id="qkdIMLg00aBCKk8LgBi8-6" style="edgeStyle=orthogonalEdgeStyle;rounded=0;orthogonalLoop=1;jettySize=auto;html=1;endArrow=none;endFill=0;" edge="1" parent="1" source="qkdIMLg00aBCKk8LgBi8-3" target="qkdIMLg00aBCKk8LgBi8-5">
          <mxGeometry relative="1" as="geometry" />
        </mxCell>
        <mxCell id="qkdIMLg00aBCKk8LgBi8-3" value="Possui" style="rhombus;whiteSpace=wrap;html=1;" vertex="1" parent="1">
          <mxGeometry x="50" y="300" width="80" height="80" as="geometry" />
        </mxCell>
        <mxCell id="qkdIMLg00aBCKk8LgBi8-24" style="edgeStyle=orthogonalEdgeStyle;rounded=0;orthogonalLoop=1;jettySize=auto;html=1;entryX=0;entryY=0.5;entryDx=0;entryDy=0;" edge="1" parent="1" source="qkdIMLg00aBCKk8LgBi8-5" target="qkdIMLg00aBCKk8LgBi8-23">
          <mxGeometry relative="1" as="geometry" />
        </mxCell>
        <mxCell id="qkdIMLg00aBCKk8LgBi8-5" value="Colaboradores" style="rounded=0;whiteSpace=wrap;html=1;" vertex="1" parent="1">
          <mxGeometry x="30" y="430" width="120" height="60" as="geometry" />
        </mxCell>
        <mxCell id="qkdIMLg00aBCKk8LgBi8-7" value="1" style="text;html=1;strokeColor=none;fillColor=none;align=center;verticalAlign=middle;whiteSpace=wrap;rounded=0;" vertex="1" parent="1">
          <mxGeometry x="70" y="250" width="60" height="30" as="geometry" />
        </mxCell>
        <mxCell id="qkdIMLg00aBCKk8LgBi8-8" value="n" style="text;html=1;strokeColor=none;fillColor=none;align=center;verticalAlign=middle;whiteSpace=wrap;rounded=0;" vertex="1" parent="1">
          <mxGeometry x="70" y="400" width="60" height="30" as="geometry" />
        </mxCell>
        <mxCell id="qkdIMLg00aBCKk8LgBi8-9" value="Erik&lt;br&gt;Claudio&lt;br&gt;Daniel" style="text;html=1;strokeColor=none;fillColor=none;align=center;verticalAlign=middle;whiteSpace=wrap;rounded=0;" vertex="1" parent="1">
          <mxGeometry x="30" y="510" width="60" height="30" as="geometry" />
        </mxCell>
        <mxCell id="qkdIMLg00aBCKk8LgBi8-12" style="edgeStyle=orthogonalEdgeStyle;rounded=0;orthogonalLoop=1;jettySize=auto;html=1;endArrow=none;endFill=0;" edge="1" parent="1" source="qkdIMLg00aBCKk8LgBi8-13" target="qkdIMLg00aBCKk8LgBi8-14">
          <mxGeometry relative="1" as="geometry" />
        </mxCell>
        <mxCell id="qkdIMLg00aBCKk8LgBi8-13" value="Possui" style="rhombus;whiteSpace=wrap;html=1;" vertex="1" parent="1">
          <mxGeometry x="200" y="180" width="80" height="80" as="geometry" />
        </mxCell>
        <mxCell id="qkdIMLg00aBCKk8LgBi8-19" style="edgeStyle=orthogonalEdgeStyle;rounded=0;orthogonalLoop=1;jettySize=auto;html=1;entryX=0.5;entryY=0;entryDx=0;entryDy=0;endArrow=none;endFill=0;" edge="1" parent="1" source="qkdIMLg00aBCKk8LgBi8-14" target="qkdIMLg00aBCKk8LgBi8-18">
          <mxGeometry relative="1" as="geometry" />
        </mxCell>
        <mxCell id="qkdIMLg00aBCKk8LgBi8-14" value="cleintes" style="rounded=0;whiteSpace=wrap;html=1;" vertex="1" parent="1">
          <mxGeometry x="340" y="190" width="120" height="60" as="geometry" />
        </mxCell>
        <mxCell id="qkdIMLg00aBCKk8LgBi8-15" value="n" style="text;html=1;strokeColor=none;fillColor=none;align=center;verticalAlign=middle;whiteSpace=wrap;rounded=0;" vertex="1" parent="1">
          <mxGeometry x="300" y="190" width="60" height="30" as="geometry" />
        </mxCell>
        <mxCell id="qkdIMLg00aBCKk8LgBi8-17" value="Concerto" style="rounded=0;whiteSpace=wrap;html=1;" vertex="1" parent="1">
          <mxGeometry x="340" y="430" width="120" height="60" as="geometry" />
        </mxCell>
        <mxCell id="qkdIMLg00aBCKk8LgBi8-20" style="edgeStyle=orthogonalEdgeStyle;rounded=0;orthogonalLoop=1;jettySize=auto;html=1;entryX=0.5;entryY=0;entryDx=0;entryDy=0;endArrow=none;endFill=0;" edge="1" parent="1" source="qkdIMLg00aBCKk8LgBi8-18" target="qkdIMLg00aBCKk8LgBi8-17">
          <mxGeometry relative="1" as="geometry" />
        </mxCell>
        <mxCell id="qkdIMLg00aBCKk8LgBi8-18" value="Pede/Verifica" style="rhombus;whiteSpace=wrap;html=1;" vertex="1" parent="1">
          <mxGeometry x="360" y="300" width="80" height="80" as="geometry" />
        </mxCell>
        <mxCell id="qkdIMLg00aBCKk8LgBi8-21" value="1" style="text;html=1;strokeColor=none;fillColor=none;align=center;verticalAlign=middle;whiteSpace=wrap;rounded=0;" vertex="1" parent="1">
          <mxGeometry x="380" y="250" width="60" height="30" as="geometry" />
        </mxCell>
        <mxCell id="qkdIMLg00aBCKk8LgBi8-22" value="n" style="text;html=1;strokeColor=none;fillColor=none;align=center;verticalAlign=middle;whiteSpace=wrap;rounded=0;" vertex="1" parent="1">
          <mxGeometry x="380" y="400" width="60" height="30" as="geometry" />
        </mxCell>
        <mxCell id="qkdIMLg00aBCKk8LgBi8-25" style="edgeStyle=orthogonalEdgeStyle;rounded=0;orthogonalLoop=1;jettySize=auto;html=1;entryX=0;entryY=0.5;entryDx=0;entryDy=0;" edge="1" parent="1" source="qkdIMLg00aBCKk8LgBi8-23" target="qkdIMLg00aBCKk8LgBi8-17">
          <mxGeometry relative="1" as="geometry" />
        </mxCell>
        <mxCell id="qkdIMLg00aBCKk8LgBi8-23" value="Faz/Encerra" style="rhombus;whiteSpace=wrap;html=1;" vertex="1" parent="1">
          <mxGeometry x="200" y="420" width="80" height="80" as="geometry" />
        </mxCell>
      </root>
    </mxGraphModel>
  </diagram>
</mxfile>
